<svg class="svg-icon" style="width: 1.0009765625em;height: 1em;vertical-align: middle;fill: currentColor;overflow: hidden;" viewBox="0 0 1025 1024" version="1.1" xmlns="http://www.w3.org/2000/svg"><path d="M595.211279 7.41776a38.111938 38.111938 0 0 0-13.300811-2.046279A529.218795 529.218795 0 0 0 511.569642 0 511.569642 511.569642 0 0 0 98.477156 812.116807a31.461533 31.461533 0 0 0 6.138836 7.929329A511.569642 511.569642 0 1 0 595.211279 7.41776zM76.735446 511.569642A434.834196 434.834196 0 0 1 511.569642 76.735446a381.886738 381.886738 0 0 1 45.529698 2.557849l61.899927 129.427119a69.573471 69.573471 0 0 1-2.302064 64.20199l-58.318939 102.313928a69.061902 69.061902 0 0 1-29.159469 27.624761L361.935522 485.99116A145.029994 145.029994 0 0 0 281.363303 616.441419a69.061902 69.061902 0 0 1-13.81238 41.437141l-35.55409 47.575976a68.806117 68.806117 0 0 1-32.484673 23.787989l-52.691673 18.160722A430.741639 430.741639 0 0 1 76.735446 511.569642z m434.834196 434.834196a427.928006 427.928006 0 0 1-104.615992-13.300811 179.049375 179.049375 0 0 1 123.799854-53.459028 248.111276 248.111276 0 0 1 118.939941 43.99499A433.299487 433.299487 0 0 1 511.569642 946.403838z m218.951807-59.597864c-32.484672-25.578482-114.847385-82.874282-198.744806-83.897421h-3.069418a267.295138 267.295138 0 0 0-200.791084 102.313929 434.834196 434.834196 0 0 1-130.706044-94.128815l27.624761-9.464038a147.843627 147.843627 0 0 0 68.550332-51.156964l35.55409-47.575977A147.332057 147.332057 0 0 0 358.098749 616.441419a68.550332 68.550332 0 0 1 38.367724-61.899927l166.260133-83.641637a144.518424 144.518424 0 0 0 61.388357-58.063154l58.318939-102.313928a145.797348 145.797348 0 0 0 5.115697-135.054386l-35.809875-75.200737a434.834196 434.834196 0 0 1 202.581578 145.541563 181.351438 181.351438 0 0 0-71.875535 102.313928 115.870524 115.870524 0 0 0 45.018129 117.149448c9.464038 8.185114 12.533456 14.32395 12.277671 16.626014s-11.254532 20.718571-48.087546 40.414002c-61.132572 32.740457-74.944953 73.666028-76.735446 102.313928-2.813633 84.664776 105.383346 154.749817 117.661017 162.423361A48.343331 48.343331 0 0 0 844.089909 792.932945a439.694107 439.694107 0 0 1-113.56846 93.873029z m166.260133-576.027416a430.741639 430.741639 0 0 1-11.766101 422.300739 39.135078 39.135078 0 0 0-10.487178-9.975608c-33.507812-20.974355-81.595358-65.736699-81.595358-94.640384 0-15.347089 19.439646-28.6479 35.55409-37.088799 55.249521-29.671039 83.897421-62.411496 87.989979-100.011865A93.36146 93.36146 0 0 0 877.597721 409.255714c-16.370229-14.068165-23.276419-27.880545-19.951216-41.181357a102.313928 102.313928 0 0 1 39.135077-57.295799z" fill="#E64290" /></svg>