<svg data-logo="logo" xmlns="http://www.w3.org/2000/svg" viewBox="0 0 232 43">
                <g style="opacity: 1;" id="logogram" transform="translate(0, 1)"><path d="M37.5948 40.783C44.0276 40.6519 49.2001 35.3903 49.2001 28.9218C49.2001 25.776 47.9513 22.7591 45.7284 20.5347L25.9896 0.782959V13.06C25.9896 15.1133 26.8048 17.0825 28.2557 18.5344L32.8796 23.1613L32.8923 23.1737L40.6454 30.9319C40.8972 31.1839 40.8972 31.5924 40.6454 31.8443C40.3936 32.0963 39.9854 32.0963 39.7336 31.8443L37.0611 29.1701H12.3392L9.66668 31.8443C9.4149 32.0963 9.00668 32.0963 8.75489 31.8443C8.5031 31.5924 8.5031 31.1839 8.75489 30.9319L16.508 23.1737L16.5206 23.1613L21.1446 18.5344C22.5955 17.0825 23.4106 15.1133 23.4106 13.06V0.782959L3.67189 20.5347C1.44896 22.7591 0.200134 25.776 0.200134 28.9218C0.200134 35.3903 5.37266 40.6519 11.8055 40.783H37.5948Z" fill="#9125FF"></path></g>
                <g style="opacity: 1;" id="logotype" transform="translate(56, 0)"><path fill="#111111" d="M24.51 35L8.31 35L8.31 9.54L13.52 9.54L13.52 30.68L24.51 30.68L24.51 35ZM34.25 35.38L34.25 35.38Q31.38 35.38 29.27 34.14Q27.17 32.90 26.04 30.68Q24.90 28.47 24.90 25.53L24.90 25.53Q24.90 22.56 26.04 20.35Q27.17 18.13 29.27 16.89Q31.38 15.65 34.25 15.65L34.25 15.65Q37.14 15.65 39.23 16.89Q41.32 18.13 42.46 20.35Q43.60 22.56 43.60 25.53L43.60 25.53Q43.60 28.47 42.46 30.68Q41.32 32.90 39.23 34.14Q37.14 35.38 34.25 35.38ZM34.25 31.34L34.25 31.34Q35.61 31.34 36.54 30.58Q37.46 29.82 37.92 28.50Q38.38 27.17 38.38 25.52L38.38 25.52Q38.38 23.82 37.92 22.51Q37.46 21.19 36.54 20.44Q35.61 19.69 34.25 19.69L34.25 19.69Q32.88 19.69 31.97 20.44Q31.05 21.19 30.59 22.51Q30.13 23.82 30.13 25.52L30.13 25.52Q30.13 27.17 30.59 28.50Q31.05 29.82 31.97 30.58Q32.88 31.34 34.25 31.34ZM53.37 42.55L53.37 42.55Q50.99 42.55 49.22 41.95Q47.44 41.34 46.33 40.28Q45.22 39.22 44.79 37.87L44.79 37.87L49.20 36.64Q49.44 37.17 49.94 37.67Q50.45 38.18 51.28 38.50Q52.12 38.83 53.35 38.83L53.35 38.83Q55.32 38.83 56.44 37.93Q57.56 37.03 57.56 35.14L57.56 35.14L57.56 31.62L57.16 31.62Q56.82 32.39 56.17 33.10Q55.52 33.82 54.47 34.27Q53.42 34.73 51.87 34.73L51.87 34.73Q49.71 34.73 47.95 33.72Q46.19 32.71 45.14 30.64Q44.09 28.57 44.09 25.41L44.09 25.41Q44.09 22.18 45.16 20.01Q46.23 17.84 47.99 16.75Q49.76 15.65 51.88 15.65L51.88 15.65Q53.49 15.65 54.58 16.19Q55.68 16.73 56.35 17.54Q57.03 18.35 57.37 19.11L57.37 19.11L57.59 19.11L57.59 15.89L62.63 15.89L62.63 34.85Q62.63 37.43 61.44 39.14Q60.26 40.86 58.17 41.71Q56.09 42.55 53.37 42.55ZM53.47 30.83L53.47 30.83Q54.79 30.83 55.70 30.18Q56.62 29.53 57.09 28.31Q57.57 27.09 57.57 25.38L57.57 25.38Q57.57 23.69 57.09 22.42Q56.62 21.16 55.70 20.46Q54.79 19.76 53.47 19.76L53.47 19.76Q52.12 19.76 51.21 20.48Q50.29 21.21 49.82 22.47Q49.35 23.74 49.35 25.38L49.35 25.38Q49.35 27.05 49.82 28.28Q50.29 29.50 51.22 30.16Q52.14 30.83 53.47 30.83ZM73.28 35.38L73.28 35.38Q70.41 35.38 68.30 34.14Q66.20 32.90 65.06 30.68Q63.93 28.47 63.93 25.53L63.93 25.53Q63.93 22.56 65.06 20.35Q66.20 18.13 68.30 16.89Q70.41 15.65 73.28 15.65L73.28 15.65Q76.16 15.65 78.26 16.89Q80.35 18.13 81.49 20.35Q82.62 22.56 82.62 25.53L82.62 25.53Q82.62 28.47 81.49 30.68Q80.35 32.90 78.26 34.14Q76.16 35.38 73.28 35.38ZM73.28 31.34L73.28 31.34Q74.64 31.34 75.57 30.58Q76.49 29.82 76.95 28.50Q77.41 27.17 77.41 25.52L77.41 25.52Q77.41 23.82 76.95 22.51Q76.49 21.19 75.57 20.44Q74.64 19.69 73.28 19.69L73.28 19.69Q71.91 19.69 71.00 20.44Q70.08 21.19 69.62 22.51Q69.16 23.82 69.16 25.52L69.16 25.52Q69.16 27.17 69.62 28.50Q70.08 29.82 71.00 30.58Q71.91 31.34 73.28 31.34ZM89.05 35L83.92 35L83.92 15.89L89.05 15.89L89.05 35ZM86.48 13.40L86.48 13.40Q85.32 13.40 84.50 12.63Q83.68 11.86 83.68 10.77L83.68 10.77Q83.68 9.67 84.50 8.90Q85.32 8.13 86.48 8.13L86.48 8.13Q87.65 8.13 88.48 8.90Q89.30 9.66 89.30 10.77L89.30 10.77Q89.30 11.86 88.48 12.63Q87.65 13.40 86.48 13.40ZM96.26 42.14L91.13 42.14L91.13 15.89L96.17 15.89L96.17 19.11L96.41 19.11Q96.77 18.35 97.43 17.55Q98.09 16.75 99.16 16.20Q100.24 15.65 101.86 15.65L101.86 15.65Q103.98 15.65 105.74 16.75Q107.50 17.84 108.55 20.03Q109.61 22.22 109.61 25.48L109.61 25.48Q109.61 28.66 108.58 30.86Q107.55 33.05 105.79 34.19Q104.03 35.32 101.83 35.32L101.83 35.32Q100.27 35.32 99.20 34.79Q98.12 34.27 97.45 33.49Q96.77 32.71 96.41 31.94L96.41 31.94L96.26 31.94L96.26 42.14ZM100.26 31.21L100.26 31.21Q101.59 31.21 102.50 30.47Q103.42 29.74 103.89 28.44Q104.36 27.14 104.36 25.46L104.36 25.46Q104.36 23.79 103.89 22.51Q103.42 21.23 102.51 20.49Q101.61 19.76 100.26 19.76L100.26 19.76Q98.94 19.76 98.02 20.47Q97.10 21.17 96.62 22.45Q96.14 23.72 96.14 25.46L96.14 25.46Q96.14 27.19 96.63 28.48Q97.11 29.77 98.04 30.49Q98.96 31.21 100.26 31.21ZM118.51 35.38L118.51 35.38Q116.20 35.38 114.42 34.72Q112.65 34.06 111.52 32.80Q110.39 31.55 110.06 29.77L110.06 29.77L114.83 28.95Q115.21 30.28 116.15 30.95Q117.09 31.62 118.66 31.62L118.66 31.62Q120.11 31.62 120.97 31.06Q121.82 30.51 121.82 29.65L121.82 29.65Q121.82 28.90 121.22 28.42Q120.61 27.94 119.36 27.69L119.36 27.69L116.06 27.00Q113.29 26.44 111.93 25.08Q110.56 23.72 110.56 21.58L110.56 21.58Q110.56 19.74 111.57 18.41Q112.58 17.09 114.37 16.37Q116.17 15.65 118.59 15.65L118.59 15.65Q120.85 15.65 122.51 16.28Q124.16 16.90 125.19 18.05Q126.21 19.19 126.56 20.75L126.56 20.75L122.01 21.55Q121.72 20.58 120.89 19.95Q120.06 19.33 118.66 19.33L118.66 19.33Q117.40 19.33 116.54 19.86Q115.69 20.39 115.69 21.26L115.69 21.26Q115.69 21.99 116.24 22.49Q116.80 22.99 118.15 23.26L118.15 23.26L121.58 23.94Q124.35 24.51 125.70 25.78Q127.05 27.05 127.05 29.10L127.05 29.10Q127.05 30.98 125.96 32.39Q124.86 33.80 122.94 34.59Q121.02 35.38 118.51 35.38ZM134.83 35.24L134.83 35.24Q132.84 35.24 131.36 34.38Q129.87 33.51 129.06 31.90Q128.25 30.28 128.25 28.04L128.25 28.04L128.25 15.89L133.37 15.89L133.37 27.16Q133.37 28.93 134.30 29.94Q135.22 30.95 136.83 30.95L136.83 30.95Q137.92 30.95 138.76 30.48Q139.59 30.01 140.06 29.11Q140.53 28.22 140.53 26.95L140.53 26.95L140.53 15.89L145.66 15.89L145.66 35L140.82 35L140.76 30.23L141.05 30.23Q140.29 32.64 138.75 33.94Q137.20 35.24 134.83 35.24ZM152.89 35L147.76 35L147.76 15.89L152.51 15.89L152.77 20.64L152.39 20.64Q152.84 18.88 153.70 17.77Q154.56 16.66 155.72 16.13Q156.89 15.60 158.17 15.60L158.17 15.60Q160.24 15.60 161.50 16.91Q162.77 18.22 163.36 20.95L163.36 20.95L162.77 20.95Q163.19 19.12 164.16 17.94Q165.12 16.75 166.45 16.18Q167.77 15.60 169.23 15.60L169.23 15.60Q170.99 15.60 172.36 16.37Q173.74 17.14 174.53 18.59Q175.33 20.03 175.33 22.11L175.33 22.11L175.33 35L170.20 35L170.20 23.09Q170.20 21.46 169.32 20.68Q168.44 19.89 167.16 19.89L167.16 19.89Q166.20 19.89 165.49 20.31Q164.78 20.73 164.40 21.48Q164.01 22.23 164.01 23.24L164.01 23.24L164.01 35L159.06 35L159.06 22.95Q159.06 21.55 158.23 20.72Q157.40 19.89 156.08 19.89L156.08 19.89Q155.18 19.89 154.45 20.30Q153.73 20.71 153.31 21.51Q152.89 22.30 152.89 23.45L152.89 23.45L152.89 35Z"></path></g>
                
            </svg>